<?xml version="1.0" encoding="utf-8"?>
<!-- Generator: Adobe Illustrator 27.2.0, SVG Export Plug-In . SVG Version: 6.00 Build 0)  -->
<svg version="1.1" id="Capa_1" xmlns="http://www.w3.org/2000/svg" xmlns:xlink="http://www.w3.org/1999/xlink" x="0px" y="0px"
	 viewBox="0 0 32 32" style="enable-background:new 0 0 32 32;" xml:space="preserve">
<style type="text/css">
	.st0{fill:#39A8E0;}
</style>
<g>
	<path class="st0" d="M31.9,16.74c-0.13,0.54-0.47,0.94-0.88,1.3c-2.08,1.8-4.14,3.62-6.21,5.43c-1.1,0.96-2.63,0.5-2.93-0.87
		c-0.13-0.58,0.01-1.13,0.45-1.54c0.81-0.75,1.65-1.47,2.48-2.2c0.85-0.75,1.71-1.5,2.57-2.25c0.05-0.04,0.11-0.06,0.19-0.11
		c-0.64-0.56-1.22-1.07-1.8-1.58c-1.09-0.95-2.18-1.91-3.27-2.86c-0.78-0.68-0.88-1.75-0.25-2.49c0.65-0.76,1.73-0.82,2.52-0.14
		c2.16,1.88,4.31,3.78,6.47,5.66c0.34,0.3,0.53,0.67,0.67,1.09C31.9,16.37,31.9,16.56,31.9,16.74z"/>
	<path class="st0" d="M20.36,7.62c-0.1,0.43-0.24,1.06-0.4,1.68c-1.28,5.16-2.57,10.32-3.84,15.48c-0.18,0.74-0.58,1.28-1.35,1.46
		c-1.26,0.29-2.36-0.79-2.08-2.06c0.32-1.41,0.68-2.81,1.03-4.21c1.05-4.23,2.11-8.45,3.15-12.68c0.19-0.78,0.58-1.35,1.39-1.53
		C19.34,5.52,20.34,6.32,20.36,7.62z"/>
	<path class="st0" d="M4.49,16.49c1.11,0.97,2.19,1.92,3.27,2.86c0.64,0.56,1.29,1.1,1.9,1.69c0.83,0.82,0.64,2.14-0.37,2.72
		c-0.66,0.38-1.42,0.29-2.06-0.27c-0.7-0.61-1.4-1.22-2.1-1.84c-1.42-1.24-2.83-2.48-4.25-3.72c-1.03-0.9-1.04-2.02-0.01-2.91
		c2.12-1.86,4.24-3.72,6.37-5.58c1.07-0.93,2.63-0.44,2.9,0.92c0.14,0.7-0.13,1.27-0.66,1.73c-1.59,1.38-3.17,2.78-4.76,4.17
		C4.65,16.34,4.58,16.4,4.49,16.49z"/>
</g>
</svg>
